<svg id="svg" xmlns="http://www.w3.org/2000/svg" viewbox="47.59000015258789,67.66999816894531,334.6700134277344,237.3300018310547" style="height:237.3300018310547"><path d="M 155.59,78 L 154.26,77.67 L 153.59,77.67 L 152.92,77.67 L 152.26,77.67 L 150.92,77.67 L 149.59,77.67 L 148.92,78.33 L 147.59,78.33 L 146.92,78.33 L 146.92,79 L 146.26,79.67 L 146.26,81 L 146.26,81.67 L 146.26,82.33 L 146.26,83 L 146.26,84.33 L 146.26,85 L 146.26,85.67 L 147.59,86.33 L 148.26,86.33 L 148.26,87.67 L 148.92,88.33 L 149.59,88.33 L 150.92,89.67 L 151.59,91 L 152.92,91.67 L 154.26,92.33 L 154.92,93 L 155.59,94.33 L 156.26,94.33 L 158.26,95.67 L 158.92,95.67 L 159.59,97.67 L 160.92,98.33 L 161.59,99 L 162.26,101 L 162.92,102.33 L 162.92,103 L 162.92,105 L 162.92,105.67 L 162.92,106.33 L 162.92,108.33 L 162.92,109 L 162.92,109.67 L 162.26,109.67 L 160.92,109.67 L 160.26,109.67 L 159.59,109.67 L 158.92,109.67 L 157.59,109.67 L 156.92,109.67 L 156.26,109.67 L 155.59,109.67 L 154.26,109.67 L 153.59,109.67 L 152.92,109.67 L 152.26,109.67 L 150.26,109.67 L 149.59,109.67 L 148.92,109.67 L 147.59,109.67 L 146.92,109 L 146.26,109 L 146.26,107.67 L 144.26,107 L 143.59,105.67 L 143.59,104.33 L 142.92,103.67 L 142.92,102.33 L 142.92,101 L 142.92,100.33 L 142.92,99.67 L 144.26,99.67" fill="none" stroke="#6190e8" stroke-width="2"></path><path d="M 176.26,86 L 174.26,85.67 L 173.59,86.33 L 172.92,87.67 L 172.26,88.33 L 170.92,88.33 L 170.26,89.67 L 170.26,91 L 169.59,91.67 L 169.59,92.33 L 168.92,93 L 168.92,94.33 L 168.92,95.67 L 168.92,96.33 L 168.92,97.67 L 169.59,98.33 L 170.92,99.67 L 171.59,101 L 172.26,101.67 L 172.92,102.33 L 174.26,103 L 174.92,103 L 175.59,104.33 L 176.26,105 L 177.59,105 L 177.59,105.67 L 178.26,105.67 L 178.92,105.67 L 179.59,105.67 L 180.92,106.33 L 181.59,106.33 L 182.26,106.33 L 182.92,106.33 L 184.26,106.33 L 184.26,105.67 L 184.92,105.67 L 185.59,104.33 L 185.59,103 L 185.59,102.33 L 185.59,101 L 185.59,100.33 L 185.59,99 L 185.59,97.67 L 185.59,97 L 185.59,95.67 L 185.59,94.33 L 185.59,93.67 L 185.59,93 L 184.26,93 L 183.59,92.33 L 183.59,91 L 182.92,91 L 182.26,91 L 182.26,90.33 L 182.26,89.67 L 180.92,89.67 L 180.26,89 L 179.59,89 L 179.59,87.67 L 178.92,87.67 L 177.59,87.67 L 176.92,87.67 L 176.26,87.67 L 175.59,87.67 L 174.26,87.67 L 173.59,87.67 L 172.92,88.33 L 172.92,89" fill="none" stroke="#6190e8" stroke-width="2"></path><path d="M 191.59,89.33 L 191.59,89.67 L 190.92,91.67 L 190.92,92.33 L 190.92,94.33 L 190.92,95 L 190.92,96.33 L 190.92,97.67 L 190.92,99 L 190.92,99.67 L 190.92,101.67 L 190.92,102.33 L 191.59,104.33 L 191.59,105.67 L 191.59,106.33 L 192.26,106.33 L 192.26,107.67 L 192.92,107.67 L 192.92,107 L 192.92,106.33 L 192.92,105.67 L 192.92,104.33 L 192.92,103 L 192.92,101 L 192.92,99.67 L 192.92,97.67 L 192.92,95.67 L 194.26,93.67 L 194.26,91 L 194.26,90.33 L 194.26,89 L 194.26,87.67 L 194.26,87 L 193.59,87 L 193.59,87.67 L 193.59,88.33 L 193.59,89 L 193.59,89.67 L 193.59,91.67 L 194.26,92.33 L 194.92,93 L 195.59,95 L 196.26,95.67 L 197.59,96.33 L 198.92,97.67 L 199.59,98.33 L 200.92,99 L 202.26,99 L 202.92,99 L 204.26,99 L 204.92,99 L 205.59,99 L 206.26,99 L 207.59,97.67 L 207.59,97 L 208.26,94.33 L 208.92,93.67 L 209.59,91 L 209.59,89.67 L 210.92,89 L 210.92,87.67 L 210.92,87 L 210.92,87.67 L 210.92,88.33 L 210.92,89 L 210.92,89.67 L 210.92,91 L 210.26,91.67 L 210.26,93 L 210.26,94.33 L 210.26,95.67 L 210.26,98.33 L 210.26,101.67 L 210.26,105 L 210.26,107.67 L 210.26,109.67 L 210.26,112.33 L 210.26,114.33 L 210.26,115.67 L 210.26,116.33" fill="none" stroke="#6190e8" stroke-width="2"></path><path d="M 222.26,92.67 L 220.92,93 L 220.26,94.33 L 220.26,95 L 220.26,95.67 L 220.26,97.67 L 220.26,99 L 220.26,101 L 219.59,102.33 L 219.59,104.33 L 219.59,105.67 L 219.59,106.33 L 219.59,108.33 L 219.59,109 L 219.59,109.67 L 219.59,111.67 L 220.92,112.33 L 221.59,113 L 222.26,113 L 222.92,114.33 L 224.26,114.33 L 225.59,114.33 L 226.26,114.33 L 227.59,114.33 L 228.92,114.33 L 229.59,114.33 L 230.92,114.33 L 231.59,114.33 L 232.26,114.33 L 232.92,114.33 L 232.92,113.67 L 234.26,113.67 L 234.26,113 L 233.59,112.33 L 232.92,112.33 L 232.92,111 L 232.26,111" fill="none" stroke="#6190e8" stroke-width="2"></path><path d="M 219.59,106.67 L 219.59,105.67 L 220.92,105.67 L 221.59,105.67 L 222.26,105.67 L 222.92,105.67 L 224.26,105.67 L 224.92,105.67 L 225.59,105.67 L 226.26,105.67 L 226.26,104.33" fill="none" stroke="#6190e8" stroke-width="2"></path><path d="M 220.26,96.67 L 220.92,96.33 L 221.59,96.33 L 222.26,96.33 L 224.26,96.33 L 224.92,96.33 L 226.26,96.33 L 227.59,96.33 L 229.59,96.33 L 230.92,96.33 L 232.92,96.33 L 234.26,96.33 L 234.92,96.33" fill="none" stroke="#6190e8" stroke-width="2"></path><path d="M 247.59,95.33 L 247.59,96 L 247.59,97.67 L 247.59,99 L 247.59,101 L 247.59,102.33 L 247.59,104.33 L 248.26,106.33 L 248.92,109 L 249.59,111.67 L 250.92,115 L 251.59,116.33 L 252.26,119 L 254.26,121 L 254.92,121.67 L 254.92,122.33 L 255.59,122.33 L 256.26,122.33 L 256.26,121 L 257.59,121 L 258.26,119.67 L 258.92,117.67 L 259.59,116.33 L 260.92,114.33 L 261.59,113 L 262.26,111 L 262.92,109 L 264.26,107 L 265.59,103.67 L 266.26,101 L 266.26,97.67 L 267.59,96.33 L 267.59,95.67 L 267.59,93.67 L 267.59,93 L 267.59,91 L 267.59,90.33 L 267.59,89.67 L 268.26,89.67 L 268.26,91 L 268.26,91.67 L 268.26,92.33" fill="none" stroke="#6190e8" stroke-width="2"></path><path d="M 275.59,127.33 L 275.59,126.33 L 276.26,125.67 L 277.59,125.67 L 277.59,123.67 L 278.26,123 L 278.26,120.33 L 278.92,119 L 279.59,116.33 L 279.59,113 L 280.92,109.67 L 280.92,107 L 281.59,103 L 282.26,100.33 L 282.26,97.67 L 282.26,97 L 282.26,95.67 L 282.26,94.33 L 282.92,93.67 L 282.92,93 L 284.26,93 L 284.92,93 L 285.59,94.33 L 285.59,95.67 L 287.59,97.67 L 288.26,99.67 L 288.92,101.67 L 289.59,104.33 L 290.92,106.33 L 291.59,109 L 291.59,111 L 292.26,112.33 L 292.92,114.33 L 294.26,116.33 L 294.92,118.33 L 296.26,119.67 L 297.59,121 L 298.92,122.33 L 299.59,123 L 300.92,124.33 L 301.59,125.67 L 302.26,125.67 L 302.26,126.33 L 300.92,126.33 L 300.26,126.33 L 299.59,126.33 L 298.92,126.33 L 297.59,125.67 L 296.92,125.67" fill="none" stroke="#6190e8" stroke-width="2"></path><path d="M 277.59,114.67 L 278.26,114.67 L 279.59,114.33 L 281.59,114.33 L 282.26,114.33 L 284.92,114.33 L 287.59,114.33 L 288.92,114.33 L 290.92,114.33 L 292.26,114.33 L 292.92,114.33 L 294.92,114.33 L 295.59,114.33 L 296.26,114.33 L 297.59,114.33 L 298.26,114.33 L 298.92,114.33" fill="none" stroke="#6190e8" stroke-width="2"></path><path d="M 311.59,92 L 311.59,92.33 L 311.59,93 L 311.59,94.33 L 311.59,95.67 L 311.59,97.67 L 311.59,99 L 311.59,101 L 311.59,102.33 L 311.59,104.33 L 311.59,105.67 L 310.92,107.67 L 310.92,109 L 310.92,109.67 L 310.92,112.33 L 310.92,114.33 L 310.92,115.67 L 310.92,117.67 L 310.92,119 L 310.92,119.67 L 310.92,121 L 310.92,121.67 L 311.59,122.33 L 312.26,122.33 L 312.92,122.33 L 314.26,122.33 L 314.92,123 L 315.59,123 L 316.26,123 L 318.26,123 L 319.59,123 L 321.59,123 L 322.26,123 L 324.26,123 L 324.92,123 L 325.59,123 L 326.26,123 L 326.26,122.33" fill="none" stroke="#6190e8" stroke-width="2"></path><path d="M 330.92,90 L 330.26,89.67 L 330.26,91 L 330.26,91.67 L 329.59,92.33 L 329.59,93 L 329.59,94.33 L 328.92,95.67 L 328.92,96.33 L 328.92,98.33 L 328.92,99.67 L 328.92,101 L 328.92,103 L 328.92,105 L 328.92,107.67 L 329.59,108.33 L 329.59,109.67 L 330.92,111.67 L 331.59,113 L 331.59,114.33 L 332.92,115.67 L 334.26,116.33 L 334.26,117.67 L 335.59,117.67 L 336.26,118.33 L 337.59,118.33 L 338.26,118.33 L 338.92,118.33 L 339.59,118.33 L 339.59,117.67 L 340.92,117 L 340.92,116.33 L 340.92,115.67 L 340.92,114.33 L 340.92,113.67 L 340.92,112.33 L 341.59,110.33 L 341.59,109 L 342.26,106.33 L 342.92,104.33 L 342.92,103 L 344.26,101 L 344.26,99.67 L 344.26,99 L 344.26,97.67 L 344.26,97 L 343.59,97 L 342.92,96.33 L 342.26,96.33" fill="none" stroke="#6190e8" stroke-width="2"></path><path d="M 358.26,93.33 L 358.26,94.33 L 358.26,95 L 358.26,95.67 L 358.26,96.33 L 358.26,97.67 L 358.26,98.33 L 357.59,99 L 357.59,101 L 356.92,101.67 L 356.92,102.33 L 356.92,104.33 L 356.26,105.67 L 356.26,107.67 L 356.26,108.33 L 356.26,109.67 L 355.59,111 L 355.59,111.67 L 355.59,112.33 L 355.59,113 L 355.59,114.33 L 355.59,115 L 355.59,115.67 L 355.59,116.33 L 356.26,117.67 L 357.59,117.67 L 358.26,118.33 L 358.92,119.67 L 359.59,119.67 L 360.92,121 L 361.59,121 L 362.26,121.67 L 362.92,121.67 L 364.92,121.67 L 367.59,121.67 L 368.92,121.67 L 369.59,121.67 L 370.92,121.67 L 370.92,121 L 370.92,120.33 L 370.26,120.33 L 370.26,119.67 L 370.26,119" fill="none" stroke="#6190e8" stroke-width="2"></path><path d="M 356.92,110.67 L 357.59,110.33 L 358.26,110.33 L 358.92,110.33 L 360.92,110.33 L 362.26,110.33 L 364.26,110.33 L 365.59,110.33 L 367.59,110.33 L 368.26,110.33 L 368.92,110.33 L 369.59,110.33" fill="none" stroke="#6190e8" stroke-width="2"></path><path d="M 357.59,97.33 L 358.26,97 L 358.92,97 L 359.59,97 L 360.92,97 L 362.26,97 L 362.92,97.67 L 364.92,97.67 L 366.26,98.33 L 368.26,99 L 368.92,99 L 370.92,99 L 371.59,99 L 372.26,99 L 372.26,99.67 L 372.26,101" fill="none" stroke="#6190e8" stroke-width="2"></path><path d="M 57.59,79.33 L 57.59,79.67 L 57.59,81 L 57.59,81.67 L 57.59,82.33 L 57.59,83 L 57.59,85 L 57.59,86.33 L 57.59,89 L 57.59,91 L 57.59,92.33 L 58.26,94.33 L 58.26,95.67 L 58.26,96.33 L 58.92,97.67 L 58.92,98.33 L 58.92,99 L 58.92,99.67 L 58.92,101 L 59.59,101 L 59.59,101.67 L 59.59,102.33 L 60.92,102.33 L 60.92,103 L 60.92,104.33 L 61.59,104.33 L 61.59,105 L 61.59,105.67 L 62.26,106.33 L 62.92,108.33 L 62.92,109.67 L 64.26,111 L 64.92,111 L 64.92,111.67 L 64.92,111" fill="none" stroke="#6190e8" stroke-width="2"></path><path d="M 74.92,84 L 75.59,83.67 L 76.26,84.33 L 76.26,85 L 76.26,85.67 L 76.26,86.33 L 76.26,88.33 L 76.26,89.67 L 76.26,91.67 L 76.26,93 L 76.26,95 L 76.26,96.33 L 76.26,99 L 77.59,101 L 77.59,103 L 77.59,105 L 77.59,106.33 L 77.59,107.67 L 78.26,107.67 L 78.26,108.33 L 78.26,109 L 78.92,109 L 77.59,109" fill="none" stroke="#6190e8" stroke-width="2"></path><path d="M 71.59,97.33 L 72.26,97.33 L 72.92,97 L 74.26,97 L 74.92,97 L 75.59,97 L 76.26,97 L 77.59,97 L 78.26,97 L 78.92,97 L 81.59,96.33 L 82.26,96.33 L 84.26,96.33 L 85.59,96.33 L 87.59,95.67 L 88.26,95.67 L 88.92,95.67 L 89.59,95.67 L 90.92,95.67 L 90.26,95.67 L 90.26,94.33 L 89.59,94.33 L 88.92,94.33" fill="none" stroke="#6190e8" stroke-width="2"></path><path d="M 74.92,86 L 75.59,85.67 L 76.26,85.67 L 77.59,85.67 L 78.26,85.67 L 78.92,85.67 L 80.92,85.67 L 81.59,85.67 L 82.92,85.67 L 84.92,85.67 L 86.26,85.67 L 87.59,85.67 L 88.26,85.67 L 89.59,85.67 L 91.59,85.67 L 92.92,85.67 L 94.92,85.67 L 96.26,85.67 L 97.59,84.33 L 98.92,84.33 L 99.59,84.33 L 100.92,84.33 L 100.26,84.33 L 99.59,84.33" fill="none" stroke="#6190e8" stroke-width="2"></path><path d="M 188.26,153.33 L 188.26,154.33 L 188.26,155 L 188.26,155.67 L 188.26,156.33 L 188.92,158.33 L 188.92,159.67 L 188.92,161.67 L 188.92,163 L 188.92,165.67 L 188.92,168.33 L 189.59,169.67 L 189.59,172.33 L 189.59,174.33 L 189.59,176.33 L 189.59,178.33 L 190.92,181 L 190.92,181.67 L 190.92,182.33 L 191.59,184.33 L 191.59,185 L 192.26,186.33 L 192.26,187.67 L 192.26,188.33 L 192.26,189" fill="none" stroke="#6190e8" stroke-width="2"></path><path d="M 175.59,158 L 176.26,157.67 L 177.59,157.67 L 178.26,157.67 L 179.59,157.67 L 181.59,157.67 L 182.92,157.67 L 184.26,157.67 L 185.59,157.67 L 186.26,157.67 L 187.59,157.67 L 188.26,157.67 L 188.92,157.67 L 189.59,157.67 L 190.92,157.67 L 191.59,157.67 L 192.26,157.67 L 192.92,157.67 L 194.26,158.33 L 194.92,158.33 L 195.59,158.33 L 197.59,158.33 L 198.26,158.33 L 200.92,158.33 L 201.59,158.33 L 202.26,158.33 L 202.92,158.33 L 204.26,158.33 L 204.92,158.33 L 205.59,158.33 L 206.26,158.33" fill="none" stroke="#6190e8" stroke-width="2"></path><path d="M 72.26,202.67 L 72.26,203 L 72.26,204.33 L 70.92,205 L 70.92,206.33 L 70.26,207.67 L 70.26,209.67 L 69.59,211.67 L 69.59,214.33 L 68.92,215.67 L 68.92,218.33 L 68.92,219.67 L 67.59,221.67 L 67.59,223 L 67.59,225.67 L 67.59,227.67 L 67.59,229 L 67.59,229.67 L 67.59,231 L 67.59,231.67 L 67.59,232.33 L 67.59,233 L 68.26,233 L 68.26,234.33 L 68.92,235 L 69.59,235 L 69.59,235.67 L 70.92,235.67 L 71.59,235.67 L 72.26,236.33 L 72.92,236.33 L 74.26,236.33 L 74.26,237.67 L 74.92,237.67 L 76.26,237.67 L 78.26,237.67 L 79.59,237.67 L 80.92,237.67 L 81.59,237.67 L 82.92,237.67 L 84.26,237.67 L 84.26,237 L 83.59,236.33 L 82.92,236.33 L 82.26,235.67 L 80.92,235.67 L 80.92,234.33 L 80.26,234.33 L 79.59,234.33" fill="none" stroke="#6190e8" stroke-width="2"></path><path d="M 70.26,224 L 70.92,223.67 L 71.59,223.67 L 72.26,223.67 L 72.92,223.67 L 74.26,223.67 L 75.59,223.67 L 77.59,223.67 L 79.59,223.67 L 80.92,223.67 L 81.59,223 L 82.26,223 L 82.92,222.33 L 84.26,222.33 L 84.26,221" fill="none" stroke="#6190e8" stroke-width="2"></path><path d="M 73.59,206.67 L 74.26,206.33 L 74.92,206.33 L 75.59,206.33 L 76.26,206.33 L 77.59,206.33 L 78.26,206.33 L 78.92,206.33 L 79.59,206.33 L 80.92,206.33 L 82.26,206.33 L 82.92,206.33 L 84.92,206.33 L 85.59,206.33 L 86.26,206.33 L 87.59,207.67 L 88.26,207.67 L 88.92,207.67 L 89.59,207.67 L 89.59,208.33" fill="none" stroke="#6190e8" stroke-width="2"></path><path d="M 97.59,212.67 L 97.59,214.33 L 96.92,216.33 L 96.26,218.33 L 96.26,221 L 95.59,221.67 L 95.59,224.33 L 94.26,225.67 L 94.26,227.67 L 93.59,229 L 93.59,231 L 93.59,232.33 L 93.59,234.33 L 93.59,235 L 93.59,235.67 L 94.26,235.67 L 94.26,236.33 L 94.92,237.67 L 95.59,237.67 L 96.26,238.33 L 97.59,238.33 L 98.26,238.33 L 98.92,238.33 L 100.92,238.33 L 101.59,238.33 L 102.92,239 L 104.92,239 L 106.26,239 L 107.59,239 L 108.26,239 L 108.92,239 L 109.59,239 L 110.92,239.67 L 112.26,239.67 L 112.92,239.67 L 114.26,239.67 L 113.59,239.67 L 112.92,239.67 L 112.26,239.67 L 112.26,239" fill="none" stroke="#6190e8" stroke-width="2"></path><path d="M 124.26,210.67 L 123.59,210.33 L 122.92,210.33 L 122.26,210.33 L 120.92,210.33 L 120.26,210.33 L 119.59,210.33 L 119.59,211 L 118.92,211 L 117.59,211 L 117.59,211.67 L 116.92,211.67 L 116.92,212.33 L 116.92,213 L 116.92,214.33 L 116.92,215 L 116.92,215.67 L 116.92,216.33 L 116.92,217.67 L 116.92,218.33 L 117.59,218.33 L 118.26,219.67 L 118.92,219.67 L 119.59,221.67 L 121.59,222.33 L 122.26,223 L 122.92,224.33 L 124.26,225.67 L 124.92,225.67 L 126.26,227.67 L 127.59,227.67 L 128.26,228.33 L 129.59,229 L 130.92,229 L 131.59,229 L 132.26,231 L 132.92,231.67 L 134.26,232.33 L 134.92,233 L 134.92,234.33 L 134.92,235 L 134.92,235.67 L 134.26,236.33 L 133.59,236.33 L 132.92,236.33 L 132.92,237.67 L 132.26,238.33 L 130.92,238.33 L 130.26,239 L 128.92,239 L 128.92,239.67 L 127.59,239.67 L 126.92,239.67 L 126.26,239.67 L 125.59,239.67 L 124.26,239.67 L 123.59,239.67 L 122.92,239.67 L 120.92,239.67 L 120.92,239 L 119.59,239 L 119.59,237.67 L 118.92,237.67 L 118.92,237" fill="none" stroke="#6190e8" stroke-width="2"></path><path d="M 136.26,216 L 137.59,215.67 L 137.59,217.67 L 137.59,218.33 L 137.59,219 L 137.59,221 L 138.26,222.33 L 138.26,224.33 L 138.26,225.67 L 138.26,227.67 L 138.26,229 L 138.26,231 L 138.92,232.33 L 138.92,235 L 138.92,235.67 L 138.92,237.67 L 138.92,238.33 L 138.92,239 L 139.59,239.67 L 140.92,239.67 L 141.59,239.67 L 141.59,241 L 142.26,241 L 142.92,241 L 144.26,241 L 144.92,241 L 145.59,241 L 146.26,241 L 147.59,241 L 148.26,241 L 148.92,241 L 149.59,241 L 150.92,241 L 151.59,241 L 152.26,241 L 152.92,241 L 154.26,241 L 154.26,240.33 L 153.59,239.67 L 152.92,239.67 L 152.26,239 L 150.92,239 L 150.26,237.67 L 149.59,237.67" fill="none" stroke="#6190e8" stroke-width="2"></path><path d="M 137.59,229.33 L 138.26,229 L 138.92,229 L 139.59,229 L 141.59,229 L 142.26,229 L 144.26,229 L 144.92,229 L 147.59,229 L 148.26,229 L 148.92,229 L 149.59,229 L 150.92,229 L 150.92,227.67" fill="none" stroke="#6190e8" stroke-width="2"></path><path d="M 139.59,218 L 140.92,218 L 141.59,217.67 L 142.26,217.67 L 142.92,217.67 L 144.92,217.67 L 145.59,217 L 146.26,217 L 148.26,217 L 148.92,217 L 150.92,217 L 152.26,217 L 154.92,217 L 155.59,217 L 158.26,216.33 L 158.92,216.33 L 159.59,216.33 L 160.92,216.33 L 160.92,217.67" fill="none" stroke="#6190e8" stroke-width="2"></path><path d="M 197.59,260.67 L 198.26,260.33 L 198.92,260.33 L 198.92,261 L 198.92,261.67 L 198.92,262.33 L 198.92,263 L 198.92,265 L 198.92,267.67 L 198.92,269 L 198.92,272.33 L 198.92,275 L 197.59,277.67 L 197.59,279.67 L 197.59,282.33 L 196.92,284.33 L 196.92,286.33 L 196.92,288.33 L 196.92,289.67 L 196.92,291.67 L 196.92,292.33 L 196.92,293 L 196.92,294.33 L 196.92,295 L 197.59,295 L 196.92,295 L 196.26,295" fill="none" stroke="#6190e8" stroke-width="2"></path><path d="M 195.59,279.33 L 196.26,279 L 197.59,279 L 198.26,279 L 198.92,279 L 200.92,279 L 201.59,279 L 202.26,279 L 204.26,279 L 204.92,277.67 L 205.59,277.67 L 207.59,277.67 L 208.26,277.67 L 208.92,277.67 L 209.59,277.67" fill="none" stroke="#6190e8" stroke-width="2"></path><path d="M 192.26,270.67 L 192.92,270.33 L 194.26,270.33 L 194.92,269.67 L 196.26,269.67 L 198.26,269.67 L 199.59,269.67 L 201.59,269 L 202.26,269 L 204.26,267.67 L 204.92,267 L 206.26,266.33 L 208.26,266.33 L 208.92,265.67 L 209.59,265.67 L 210.92,264.33 L 211.59,264.33 L 212.26,264.33 L 212.92,264.33 L 214.26,264.33 L 214.92,264.33 L 215.59,264.33" fill="none" stroke="#6190e8" stroke-width="2"></path></svg>  